<svg xmlns="http://www.w3.org/2000/svg" viewBox="0 0 48 48" width="144" height="144"><linearGradient id="a" x1="16.33" x2="32.293" y1="-2.748" y2="41.109" gradientUnits="userSpaceOnUse"><stop offset="0" stop-color="#2aa4f4"/><stop offset="1" stop-color="#007ad9"/></linearGradient><path fill="url(#a)" d="m7.192 7.176 2.627 29.77a3 3 0 0 0 2.164 2.621l10.643 3.041a4.99 4.99 0 0 0 2.747 0l10.643-3.041a3 3 0 0 0 2.164-2.621l2.627-29.77A1.998 1.998 0 0 0 38.816 5H9.184a2 2 0 0 0-1.992 2.176z"/><path fill="#35c1f1" d="M24 8v31.9l9.876-2.822a2 2 0 0 0 1.443-1.749l2.286-26.242A1 1 0 0 0 36.609 8H24z"/><path fill="#fff" d="M33.1 13H24v4h4.9l-.3 4H24v4h4.4l-.3 4.5-4.1 1.4v4.2l7.9-2.6.7-11.5.5-8z"/><path fill="#d6e0e9" d="M24 13v4h-8.9l-.3-4H24zm-4.6 8 .2 4H24v-4h-4.6zm.4 6h-4l.3 5.5 7.9 2.6v-4.2l-4.1-1.4-.1-2.5z"/><path d="m33.1 13-.5 8-.7 11.5-7.9 2.6-7.9-2.6-.3-5.5h4l.1 2.5 4.1 1.4 4.1-1.4.3-4.5h-8.8l-.2-4h9.2l.3-4H15.1l-.3-4H33.1m1.064-1H13.722l.081 1.075.3 4 .069.925H27.822l-.15 2h-9.323l.052 1.05.2 4 .048.95H14.744l.058 1.054.3 5.5.037.682.649.214 7.9 2.6.312.103.313-.103 7.9-2.6.644-.212.041-.677.7-11.5.5-7.998.066-1.063zM20.761 26h6.57l-.185 2.769L24 29.843l-3.128-1.068-.073-1.815-.038-.96z" opacity=".05"/><path d="m33.1 13-.5 8-.7 11.5-7.9 2.6-7.9-2.6-.3-5.5h4l.1 2.5 4.1 1.4 4.1-1.4.3-4.5h-8.8l-.2-4h9.2l.3-4H15.1l-.3-4H33.1m.532-.5H14.261l.04.537.3 4 .035.463H28.361l-.225 3h-9.262l.026.525.2 4 .024.475h8.742l-.242 3.634L24 30.372l-3.614-1.234-.086-2.158-.02-.48H15.272l.029.527.3 5.5.019.341.324.107 7.9 2.6.156.051.156-.051 7.9-2.6.322-.106.021-.339.7-11.5.5-7.999.033-.531z" opacity=".07"/></svg>